<svg width="72" height="21" viewBox="0 0 72 21" fill="none" xmlns="http://www.w3.org/2000/svg">
<path d="M71.9994 12.3989V16.7193L71.9044 16.7644C71.2448 17.0775 70.5642 17.3126 69.8635 17.4694C69.1615 17.6264 68.441 17.705 67.7038 17.705C66.8502 17.705 66.0809 17.5978 65.3961 17.3837C64.7065 17.1681 64.1029 16.844 63.5862 16.4119C63.0717 15.9749 62.6857 15.4614 62.4281 14.8716C62.1713 14.2834 62.043 13.6213 62.043 12.8867C62.043 12.1508 62.1742 11.4911 62.4361 10.9079C62.6988 10.3227 63.0927 9.81647 63.617 9.38912C64.1428 8.96094 64.7583 8.63997 65.4628 8.42704C66.1628 8.21543 66.9516 8.10938 67.8286 8.10938C68.4431 8.10938 69.0791 8.17408 69.7358 8.30329C70.3906 8.43201 71.0656 8.62524 71.7597 8.88218L71.9215 8.94225L71.2973 10.4268L71.1436 10.3583C70.5936 10.113 70.0445 9.92881 69.4974 9.80605C68.9535 9.68428 68.4095 9.62306 67.8656 9.62306C67.2231 9.62306 66.6477 9.69767 66.1404 9.84707C65.6373 9.99498 65.1995 10.2167 64.8274 10.5112C64.4669 10.7959 64.1971 11.1324 64.0186 11.5207C63.8389 11.9114 63.7492 12.3586 63.7492 12.8622C63.7492 13.368 63.8384 13.8201 64.0167 14.2182C64.1941 14.6141 64.4618 14.9604 64.8185 15.2559C65.1815 15.5548 65.6082 15.779 66.0968 15.9284C66.5901 16.0791 67.15 16.1546 67.7754 16.1546C68.6511 16.1546 69.5108 16.007 70.3545 15.712V13.7184H66.8431L67.4602 12.2335H71.9994V12.3989Z" fill="white"/>
<path d="M50.4858 8.27148H52.0755L57.6521 14.9519V8.27148H59.2867V17.5556H57.7527L51.9548 10.6165V17.5556H50.3203V8.27148H50.4858Z" fill="white"/>
<path d="M39.6166 8.27148H47.1139V9.77276H41.1267V12.1435H46.828L46.2244 13.6098H41.1267V16.0543H47.4562V17.5556H39.4512V8.27148H39.6166Z" fill="white"/>
<path d="M11.8022 8.27148H13.3122V17.5556H11.6367V8.27148H11.8022Z" fill="white"/>
<path d="M18.2095 8.27148H20.3385L15.72 12.6085L20.6226 17.5556H18.3401C16.7245 15.9234 15.1036 14.2961 13.4863 12.6654L18.1442 8.27148H18.2095Z" fill="white"/>
<path d="M8.54403 9.17928L7.99805 10.4787L7.84269 10.4067C7.27802 10.145 6.70707 9.94879 6.13049 9.81842C5.55539 9.68821 4.97186 9.62302 4.38022 9.62302C3.52982 9.62302 2.89698 9.72774 2.48253 9.9367C2.10498 10.127 1.91588 10.4096 1.91588 10.7836C1.91588 11.3635 2.45391 11.7252 3.52899 11.8642L5.91292 12.1568C6.89104 12.2806 7.62878 12.5683 8.12561 13.0198C8.63304 13.4809 8.88699 14.1051 8.88699 14.8914C8.88699 15.8332 8.53343 16.541 7.82614 17.015C7.13987 17.475 6.12137 17.705 4.77165 17.705C3.94673 17.705 3.14813 17.6237 2.37648 17.4611C1.60401 17.2985 0.859652 17.0541 0.144589 16.7288L0 16.663L0.630348 15.1255L0.787022 15.1993C1.47363 15.5224 2.1551 15.7648 2.83046 15.9259C3.50482 16.0861 4.17389 16.1668 4.83717 16.1668C5.66259 16.1668 6.27607 16.0578 6.67695 15.8399C7.0454 15.6395 7.22987 15.3394 7.22987 14.9405C7.22987 14.6281 7.09785 14.3775 6.83412 14.1895C6.54707 13.9847 6.10698 13.8467 5.51484 13.7764L3.15358 13.4956C2.69413 13.4415 2.28614 13.3449 1.93126 13.2061C1.56992 13.0648 1.26203 12.8794 1.00857 12.6507C0.75295 12.4189 0.560534 12.1519 0.432312 11.8494C0.304256 11.5482 0.240222 11.2133 0.240222 10.8452C0.240222 9.96798 0.60784 9.29229 1.34276 8.81497C1.70145 8.58186 2.13542 8.40765 2.64334 8.29233C3.14548 8.1785 3.72058 8.12158 4.36781 8.12158C5.08453 8.12158 5.78436 8.19156 6.46717 8.33203C7.14881 8.47199 7.81242 8.68278 8.45733 8.96404L8.6069 9.02939L8.54403 9.17928Z" fill="white"/>
<path d="M31.2348 4.86279V15.6784H29.1035V4.86279H31.2348Z" fill="white"/>
<path d="M26.1825 8.0542V10.2656H24.1035V8.0542H26.1825ZM26.1825 11.4166V20.6019H24.1035V11.4166H26.1825Z" fill="white"/>
<path d="M35.9435 0.397949V11.106H34.0215V0.397949H35.9435Z" fill="white"/>
</svg>
